<svg width="24" height="24" viewBox="0 0 24 24" fill="none" xmlns="http://www.w3.org/2000/svg">
<g clip-path="url(#clip0_3_19)">
<path d="M12.025 9.49034C12.9621 9.48405 13.8763 9.20041 14.6524 8.67519C15.4285 8.14997 16.0317 7.40669 16.386 6.53908C16.7403 5.67147 16.8297 4.71838 16.643 3.8C16.4564 2.88163 16.002 2.03909 15.3371 1.37864C14.6723 0.718193 13.8268 0.269407 12.9072 0.088878C11.9876 -0.0916511 11.0352 0.00416143 10.1701 0.364233C9.30488 0.724305 8.56569 1.33251 8.04571 2.11215C7.52572 2.8918 7.24821 3.80796 7.24819 4.74512C7.24902 5.37072 7.37338 5.99 7.61412 6.56742C7.85486 7.14484 8.20726 7.66903 8.65108 8.10992C9.0949 8.5508 9.62141 8.8997 10.2004 9.13659C10.7794 9.37348 11.3994 9.4937 12.025 9.49034ZM12.025 2.5413C12.4579 2.54757 12.8793 2.68161 13.2363 2.92657C13.5933 3.17153 13.87 3.51651 14.0316 3.91818C14.1932 4.31986 14.2326 4.76033 14.1448 5.18431C14.057 5.60828 13.8458 5.99686 13.5379 6.30126C13.23 6.60565 12.8391 6.8123 12.4141 6.89526C11.9892 6.97822 11.5492 6.93379 11.1495 6.76754C10.7497 6.6013 10.408 6.32066 10.1671 5.96085C9.9263 5.60104 9.79712 5.17809 9.79582 4.74512C9.79664 4.45409 9.8551 4.1661 9.96781 3.89779C10.0805 3.62947 10.2453 3.38614 10.4525 3.18183C10.6598 2.97753 10.9054 2.8163 11.1753 2.70745C11.4452 2.59861 11.734 2.5443 12.025 2.54767V2.5413ZM12.025 10.4903C10.8379 10.4912 9.66264 10.726 8.56639 11.1815C7.47014 11.637 6.47444 12.3041 5.63623 13.1447C4.79801 13.9853 4.13374 14.983 3.68139 16.0806C3.22905 17.1781 2.99751 18.3541 3.00002 19.5413C3.00002 20.4394 3.42038 22.0891 6.25462 23.1464C8.11593 23.7554 10.0671 24.044 12.025 23.9999C16.1904 23.9999 21.05 22.8279 21.05 19.5413C21.0525 18.3541 20.821 17.1781 20.3686 16.0806C19.9163 14.983 19.252 13.9853 18.4138 13.1447C17.5756 12.3041 16.5799 11.637 15.4836 11.1815C14.3874 10.726 13.2121 10.4912 12.025 10.4903V10.4903ZM12.025 21.4521C8.01248 21.4521 5.54765 20.3247 5.54765 19.5413C5.52044 18.674 5.66777 17.81 5.98089 17.0007C6.294 16.1914 6.76652 15.4533 7.37039 14.8301C7.97426 14.207 8.69717 13.7115 9.4962 13.3732C10.2952 13.0348 11.1541 12.8605 12.0218 12.8605C12.8895 12.8605 13.7484 13.0348 14.5474 13.3732C15.3465 13.7115 16.0694 14.207 16.6732 14.8301C17.2771 15.4533 17.7496 16.1914 18.0627 17.0007C18.3759 17.81 18.5232 18.674 18.496 19.5413C18.5023 20.3247 16.0375 21.4521 12.025 21.4521V21.4521Z" fill="black"/>
</g>
<defs>
<clipPath id="clip0_3_19">
<rect width="24" height="24" fill="white"/>
</clipPath>
</defs>
</svg>
