<svg width="24" height="24" viewBox="0 0 24 24" fill="none" xmlns="http://www.w3.org/2000/svg">
<path d="M21.8119 3.33061C20.5396 2.01243 18.853 1.20789 17.0567 1.06231C15.2605 0.916741 13.4731 1.43973 12.0174 2.53682C10.4902 1.36305 8.58937 0.830802 6.6976 1.04727C4.80583 1.26373 3.0637 2.21282 1.82202 3.70342C0.580349 5.19402 -0.0686375 7.1154 0.00575595 9.08064C0.0801494 11.0459 0.872397 12.909 2.22296 14.2948L9.67685 22.0095C10.301 22.6442 11.1417 23 12.0174 23C12.8932 23 13.7339 22.6442 14.358 22.0095L21.8119 14.2948C23.2134 12.8378 24 10.867 24 8.81272C24 6.75845 23.2134 4.78763 21.8119 3.33061V3.33061ZM20.1195 12.5832L12.6656 20.2855C12.5808 20.374 12.4798 20.4442 12.3686 20.4922C12.2573 20.5401 12.138 20.5648 12.0174 20.5648C11.8969 20.5648 11.7776 20.5401 11.6663 20.4922C11.5551 20.4442 11.4541 20.374 11.3693 20.2855L3.91539 12.546C2.97406 11.5517 2.44695 10.2161 2.44695 8.82512C2.44695 7.43417 2.97406 6.09852 3.91539 5.10423C4.87462 4.12562 6.16833 3.57689 7.5163 3.57689C8.86428 3.57689 10.158 4.12562 11.1172 5.10423C11.2288 5.22048 11.3616 5.31275 11.5078 5.37572C11.6541 5.43869 11.811 5.47111 11.9694 5.47111C12.1279 5.47111 12.2848 5.43869 12.431 5.37572C12.5773 5.31275 12.7101 5.22048 12.8217 5.10423C13.7809 4.12562 15.0746 3.57689 16.4226 3.57689C17.7705 3.57689 19.0643 4.12562 20.0235 5.10423C20.9778 6.08549 21.5222 7.4139 21.5401 8.80489C21.5581 10.1959 21.0481 11.5388 20.1195 12.546V12.5832Z" fill="black"/>
</svg>
