<svg width="24" height="24" viewBox="0 0 24 24" fill="none" xmlns="http://www.w3.org/2000/svg">
<g clip-path="url(#clip0_3_9)">
<path d="M23.9875 21.3613L21.8576 4.52356H17.9306C17.4647 1.94764 15.0021 0 12.0069 0C9.01174 0 6.54906 1.94764 6.08314 4.52356H2.15616L0.0262739 21.3613C-0.106844 22.3037 0.29251 22.8691 0.625305 23.2461C0.9581 23.5602 1.55713 24 2.68863 24H21.3252C22.1904 24 22.9226 23.7487 23.3885 23.1832C23.8544 22.7435 24.0541 22.0524 23.9875 21.3613V21.3613ZM12.0069 2.51309C13.4712 2.51309 14.7358 3.39267 15.1352 4.52356H8.81206C9.27798 3.32984 10.5426 2.51309 12.0069 2.51309ZM2.68863 21.4869L4.55229 7.03665H6.01659V8.92147C6.01659 9.61257 6.61562 10.178 7.34777 10.178C8.07991 10.178 8.67895 9.61257 8.67895 8.92147V7.03665H15.3348V8.92147C15.3348 9.61257 15.9339 10.178 16.666 10.178C17.3982 10.178 17.9972 9.61257 17.9972 8.92147V7.03665H19.4615L21.3252 21.4869H2.68863Z" fill="black"/>
</g>
<defs>
<clipPath id="clip0_3_9">
<rect width="24" height="24" fill="white"/>
</clipPath>
</defs>
</svg>
