<svg width="427" height="388" viewBox="0 0 427 388" fill="none" xmlns="http://www.w3.org/2000/svg">
<g clip-path="url(#clip0_19_15)">
<path d="M425.92 154.56C425.132 149.82 423.226 145.336 420.36 141.48C417.206 137.605 412.991 134.735 408.23 133.22C403.917 131.923 399.395 131.468 394.91 131.88C388.83 132.32 382.91 133.88 377.02 135.38C374.34 122.92 371.66 110.47 365.74 99.63C361.96 92.73 356.86 86.47 351.55 80.41C339.17 66.27 325.55 53.12 309.27 44.25C305.922 42.4289 302.462 40.8224 298.91 39.44C299.418 32.9694 301.653 26.7535 305.38 21.44C294.13 21.44 286.82 33.56 286.82 33.56C288.66 18.05 279.34 0 279.34 0C279.92 10.72 273.16 24.41 267.65 33.64C253.65 33.2 239.12 34.93 224.65 36.64C220.937 37.3649 217.183 37.8658 213.41 38.14C209.643 37.8659 205.897 37.3649 202.19 36.64C176.81 33.64 151.44 30.57 128.59 39.14C124.788 40.5786 121.09 42.2759 117.52 44.22C101.2 53.09 87.62 66.22 75.24 80.38C69.89 86.47 64.79 92.73 61 99.63C55.07 110.47 52.4 122.92 49.72 135.38C43.82 133.84 37.91 132.32 31.83 131.88C27.3485 131.467 22.8293 131.922 18.52 133.22C13.7552 134.732 9.5357 137.603 6.38002 141.48C3.51743 145.337 1.61492 149.821 0.830024 154.56C-1.58998 167.06 1.74002 179.79 4.76002 192.28C6.50002 199.47 8.14002 206.57 11.06 213.17C14.2035 220.001 18.3159 226.343 23.27 232C30.7833 240.993 39.7426 248.672 49.78 254.72C52.363 256.289 55.0685 257.647 57.87 258.78C64.39 261.32 71.5 262.01 78.61 262.68C85 270.84 91.35 279 97.53 287.52C104.08 296.52 110.41 305.89 114.22 316.24C115.633 320.252 116.838 324.334 117.83 328.47C118.759 332.604 119.989 336.665 121.51 340.62C123.091 344.199 125.183 347.531 127.72 350.51C132.589 356.163 137.943 361.379 143.72 366.1C151.18 372.41 159.04 378.4 167.87 382.1C178.69 386.64 190.98 387.74 202.87 387.93C206.4 387.98 209.87 387.93 213.38 387.93C216.89 387.93 220.38 387.98 223.91 387.93C235.8 387.74 248.09 386.64 258.91 382.1C267.75 378.4 275.61 372.41 283.07 366.1C288.844 361.376 294.198 356.16 299.07 350.51C301.601 347.528 303.689 344.197 305.27 340.62C306.791 336.665 308.021 332.604 308.95 328.47C309.942 324.334 311.147 320.252 312.56 316.24C316.37 305.89 322.7 296.54 329.25 287.52C335.43 279.03 341.8 270.84 348.17 262.64C355.28 261.97 362.39 261.28 368.91 258.74C371.713 257.609 374.418 256.251 377 254.68C387.026 248.636 395.981 240.972 403.5 232C408.438 226.352 412.54 220.024 415.68 213.21C418.61 206.61 420.25 199.51 421.99 192.32C425 179.79 428.34 167.06 425.92 154.56ZM53.09 236.7C41.54 230.7 35.86 228.09 32.04 222.09C27.38 214.76 25.5 202.35 25.39 191.47C25.32 184.97 25.87 179.02 28.39 173.01C28.7631 171.928 29.3749 170.944 30.18 170.13C31.87 168.68 34.8 168.94 37.18 169.54C39.38 170.08 41.18 170.92 43.32 171.6C44.73 172.04 46.32 172.41 47.11 173.39C47.9 174.37 47.93 175.75 48 177.19C49.35 190.49 50.7 203.79 53.29 215.93C54.87 223.31 56.9 230.26 62.39 237.93C63.1179 238.839 63.7606 239.813 64.31 240.84C65.19 243.05 58.5 239.5 53.09 236.7ZM331.32 185.85C327.92 204.31 319.32 220.85 310.76 237.44C307.09 242.75 303.42 248.06 298.3 251.8C296.892 252.698 295.578 253.736 294.38 254.9C293.468 255.887 292.809 257.082 292.46 258.38C292.324 258.963 292.227 259.554 292.17 260.15C292.03 267.02 291.89 273.89 291.79 280.82C291.692 283.028 291.796 285.241 292.1 287.43C292.66 290.67 294.1 293.77 294.67 297C295.106 300.248 295.032 303.545 294.45 306.77C293.14 316.149 290.465 325.286 286.51 333.89C283.005 341.227 278.601 348.1 273.4 354.35C269 359.75 263.99 365.12 258 369.17C250.874 373.892 242.752 376.904 234.27 377.97C227.34 378.89 220.36 378.56 213.38 378.23C206.38 378.56 199.38 378.89 192.48 377.97C183.998 376.904 175.876 373.892 168.75 369.17C162.75 365.12 157.75 359.75 153.35 354.35C148.149 348.1 143.745 341.227 140.24 333.89C136.284 325.287 133.612 316.149 132.31 306.77C131.72 303.546 131.643 300.249 132.08 297C132.64 293.77 134.08 290.67 134.65 287.43C134.954 285.241 135.058 283.028 134.96 280.82C134.86 273.89 134.72 267.02 134.58 260.15C134.523 259.554 134.426 258.963 134.29 258.38C133.941 257.082 133.282 255.887 132.37 254.9C131.172 253.736 129.858 252.698 128.45 251.8C123.33 248.06 119.66 242.75 115.99 237.44C107.41 220.88 98.83 204.31 95.43 185.85C91.67 165.45 94.24 142.73 104.77 125.19C104.773 125.17 104.773 125.15 104.77 125.13C107.77 121.13 110.77 117.18 114.77 114.79C116.959 113.569 119.319 112.683 121.77 112.16C126.41 111.072 131.213 110.862 135.93 111.54C140.226 112.266 144.429 113.467 148.46 115.12C152.6 116.73 156.64 118.54 160.69 120.33C164.74 122.12 168.74 123.86 172.69 125.41C178.22 126.56 183.76 127.7 189.34 128.41C197.313 129.218 205.327 129.552 213.34 129.41C221.353 129.552 229.367 129.218 237.34 128.41C242.92 127.73 248.46 126.59 253.99 125.41C257.89 123.86 261.92 122.1 265.99 120.33C270.06 118.56 274.08 116.73 278.22 115.12C282.251 113.467 286.454 112.266 290.75 111.54C295.467 110.862 300.27 111.072 304.91 112.16C307.361 112.683 309.721 113.569 311.91 114.79C315.99 117.18 318.97 121.16 321.91 125.13C321.907 125.15 321.907 125.17 321.91 125.19C332.51 142.73 335.08 165.45 331.32 185.85V185.85ZM394.71 222.09C390.89 228.09 385.21 230.71 373.71 236.7C368.3 239.5 361.61 243.05 362.44 240.82C362.989 239.793 363.632 238.819 364.36 237.91C369.85 230.26 371.88 223.31 373.46 215.91C376.05 203.77 377.4 190.47 378.75 177.17C378.82 175.73 378.89 174.28 379.64 173.37C380.39 172.46 382.02 172.02 383.43 171.58C385.61 170.9 387.37 170.06 389.57 169.52C391.98 168.92 394.91 168.66 396.57 170.11C397.375 170.924 397.987 171.908 398.36 172.99C400.9 178.99 401.45 184.99 401.36 191.45C401.25 202.35 399.37 214.76 394.71 222.09V222.09Z" fill="black"/>
<path d="M245.15 330.21H181.61V336.13H245.15V330.21Z" fill="black"/>
<path d="M184.75 277C184.75 275.948 185.062 274.919 185.647 274.044C186.231 273.169 187.062 272.488 188.034 272.085C189.006 271.682 190.076 271.577 191.108 271.782C192.14 271.987 193.088 272.494 193.832 273.238C194.576 273.982 195.083 274.93 195.288 275.962C195.493 276.994 195.388 278.064 194.985 279.036C194.582 280.008 193.901 280.839 193.026 281.423C192.151 282.008 191.122 282.32 190.07 282.32C188.659 282.32 187.306 281.759 186.308 280.762C185.311 279.764 184.75 278.411 184.75 277V277Z" fill="black"/>
<path d="M231.37 277C231.37 275.948 231.682 274.919 232.267 274.044C232.851 273.169 233.682 272.488 234.654 272.085C235.626 271.682 236.696 271.577 237.728 271.782C238.76 271.987 239.708 272.494 240.452 273.238C241.196 273.982 241.703 274.93 241.908 275.962C242.113 276.994 242.008 278.064 241.605 279.036C241.202 280.008 240.52 280.839 239.646 281.423C238.771 282.008 237.742 282.32 236.69 282.32C235.279 282.32 233.926 281.759 232.928 280.762C231.93 279.764 231.37 278.411 231.37 277Z" fill="black"/>
<path d="M355.63 161C355.089 156.647 353.843 152.412 351.94 148.46C349.89 144.52 345.61 140.13 343.87 138.46C338.297 132.906 331.301 128.996 323.65 127.16C318.29 125.92 309.31 125.31 303.24 125.16C300.08 125.08 296.9 124.94 293.81 124.8C289.94 124.63 285.93 124.45 281.96 124.4H279.84C273.421 124.334 267.009 124.843 260.68 125.92C258.19 126.37 255.68 126.92 253.29 127.5C251.51 127.92 249.73 128.33 247.95 128.69C240.004 130.233 231.934 131.053 223.84 131.14C220.35 131.2 216.84 131.14 213.37 131.14C209.9 131.14 206.37 131.2 202.92 131.14C194.826 131.054 186.756 130.234 178.81 128.69C177.02 128.33 175.24 127.92 173.47 127.5C171.06 126.95 168.57 126.37 166.08 125.92C159.748 124.843 153.333 124.334 146.91 124.4H144.79C140.79 124.45 136.79 124.63 132.94 124.8C129.86 124.94 126.67 125.08 123.52 125.16C117.45 125.31 108.46 125.92 103.11 127.16C95.4596 128.991 88.4629 132.898 82.89 138.45C81.14 140.16 76.89 144.55 74.82 148.45C72.9084 152.403 71.6585 156.642 71.12 161C70.2 169.77 71.42 188.06 73.06 197.36C74.2354 203.471 76.1076 209.426 78.64 215.11C80.2903 218.758 82.3003 222.231 84.64 225.48C86.4044 227.908 88.3823 230.174 90.55 232.25C92.2785 233.891 94.1643 235.358 96.18 236.63C99.011 238.161 102.039 239.295 105.18 240C110.487 240.658 115.833 240.946 121.18 240.86C129.47 240.86 138.61 240.44 142.33 240.05C146.65 239.638 150.91 238.742 155.03 237.38C160.677 235.257 166.049 232.464 171.03 229.06C175.05 226.513 178.913 223.728 182.6 220.72C184.35 219.29 192.03 211.72 194.07 209.28C197.034 205.805 199.619 202.024 201.78 198C203 195.68 204.05 193.24 205.07 190.88C205.53 189.82 205.99 188.75 206.46 187.7C207.15 186.14 208.77 183.07 208.83 182.95C209.279 182.122 209.943 181.432 210.753 180.953C211.564 180.473 212.489 180.223 213.43 180.228C214.371 180.233 215.294 180.494 216.098 180.982C216.903 181.47 217.56 182.168 218 183C218 183 219.63 186.1 220.33 187.66C220.8 188.66 221.26 189.78 221.71 190.84C222.71 193.2 223.78 195.64 225 197.96C227.16 201.974 229.737 205.748 232.69 209.22C234.74 211.68 242.42 219.22 244.16 220.66C247.837 223.667 251.691 226.452 255.7 229C260.681 232.403 266.053 235.197 271.7 237.32C275.829 238.69 280.099 239.589 284.43 240C288.15 240.39 297.29 240.81 305.58 240.81C310.927 240.895 316.273 240.608 321.58 239.95C324.72 239.244 327.748 238.11 330.58 236.58C332.596 235.305 334.482 233.835 336.21 232.19C338.377 230.117 340.355 227.855 342.12 225.43C344.456 222.179 346.466 218.706 348.12 215.06C350.648 209.374 352.52 203.419 353.7 197.31C355.33 188 356.56 169.73 355.63 161ZM146.91 132.28C152.86 132.215 158.804 132.683 164.67 133.68C166.96 134.09 169.25 134.62 171.67 135.18C173.47 135.6 175.33 136.03 177.23 136.42C185.647 138.059 194.195 138.929 202.77 139.02C204.25 139.02 205.77 139.02 207.52 139.02C209.47 139.02 211.42 139.02 213.38 139.02C215.34 139.02 217.28 139.02 219.24 139.02C220.95 139.02 222.5 139.02 223.98 139.02C232.558 138.931 241.111 138.057 249.53 136.41C251.42 136.03 253.29 135.6 255.09 135.18C257.51 134.62 259.79 134.09 262.09 133.68C267.949 132.683 273.887 132.215 279.83 132.28H281.83C285.67 132.33 289.43 132.5 293.42 132.68C296.54 132.82 299.77 132.96 303.02 133.04C310.4 133.22 317.95 133.94 321.81 134.84C328.04 136.339 333.734 139.534 338.26 144.07C340.801 146.428 343.011 149.119 344.83 152.07C346.285 155.132 347.243 158.407 347.67 161.77C348.51 169.7 347.35 187.18 345.81 195.93C344.74 201.358 343.063 206.648 340.81 211.7C339.372 214.865 337.623 217.88 335.59 220.7C334.116 222.731 332.463 224.625 330.65 226.36C329.371 227.568 327.989 228.662 326.52 229.63C324.516 230.671 322.399 231.476 320.21 232.03C315.334 232.628 310.422 232.878 305.51 232.78C296.65 232.78 288.15 232.32 285.21 232.02C281.468 231.676 277.778 230.908 274.21 229.73C269.195 227.835 264.425 225.347 260 222.32C256.229 219.939 252.605 217.331 249.15 214.51C247.79 213.4 240.44 206.18 238.75 204.13C236.157 201.093 233.891 197.792 231.99 194.28C230.92 192.22 229.99 190.03 228.99 187.7C228.51 186.6 228.04 185.5 227.56 184.43C226.87 182.88 225.56 180.34 225.12 179.53C224.023 177.35 222.342 175.518 220.265 174.237C218.188 172.957 215.795 172.279 213.355 172.279C210.915 172.279 208.522 172.957 206.445 174.237C204.368 175.518 202.687 177.35 201.59 179.53C201.17 180.34 199.85 182.88 199.17 184.41C198.68 185.5 198.17 186.6 197.73 187.7C196.73 190.03 195.78 192.22 194.73 194.26C192.826 197.787 190.553 201.102 187.95 204.15C186.27 206.15 178.95 213.4 177.53 214.55C174.083 217.351 170.474 219.946 166.72 222.32C162.267 225.373 157.467 227.884 152.42 229.8C148.873 230.966 145.207 231.73 141.49 232.08C138.49 232.38 130.04 232.84 121.17 232.84C116.258 232.938 111.346 232.688 106.47 232.09C104.291 231.538 102.184 230.736 100.19 229.7C98.697 228.736 97.2945 227.638 96 226.42C94.1696 224.681 92.4964 222.784 91 220.75C88.9749 217.926 87.23 214.912 85.79 211.75C83.5398 206.693 81.8627 201.4 80.79 195.97C79.25 187.23 78.1 169.75 78.93 161.86C79.355 158.483 80.3136 155.196 81.77 152.12C83.5954 149.171 85.8085 146.48 88.35 144.12C92.8769 139.592 98.5658 136.401 104.79 134.9C108.65 134 116.21 133.28 123.59 133.1C126.83 133.02 130.06 132.88 133.19 132.74C137.19 132.56 140.94 132.39 144.77 132.34L146.91 132.28Z" fill="black"/>
</g>
<defs>
<clipPath id="clip0_19_15">
<rect width="426.76" height="387.96" fill="white"/>
</clipPath>
</defs>
</svg>
