<svg width="374" height="103" viewBox="0 0 374 103" fill="none" xmlns="http://www.w3.org/2000/svg">
<path d="M37.2979 36.0869C36.4289 38.3093 35.0921 40.3116 33.3811 41.9533C31.5902 43.6058 29.4935 44.8793 27.2132 45.6994C24.6508 46.6327 21.9447 47.0925 19.2229 47.0571C16.4955 47.0969 13.7832 46.637 11.2162 45.6994C8.96537 44.87 6.90555 43.5809 5.16374 41.9114C3.4855 40.2605 2.18006 38.2589 1.33766 36.045C0.420857 33.641 -0.0326504 31.0804 0.00182814 28.5024V0H10.8286V27.656C10.8246 28.86 10.9855 30.0588 11.3069 31.2177C11.6087 32.3043 12.1064 33.3245 12.7747 34.2264C13.4593 35.1386 14.358 35.8618 15.3886 36.3299C16.6211 36.882 17.9591 37.1483 19.3054 37.1093C20.6515 37.1458 21.989 36.8796 23.2222 36.3299C24.2559 35.8555 25.1613 35.1338 25.8609 34.2264C26.548 33.3364 27.0476 32.3123 27.3286 31.2177C27.6308 30.0556 27.7805 28.858 27.7739 27.656V0H38.6667V28.5443C38.702 31.1255 38.2369 33.6884 37.2979 36.0869V36.0869Z" fill="black"/>
<path d="M71.6008 45.8335L61.8459 27.6393H58.1353V45.8335H47.4569V4.85344e-05H64.6578C66.7865 -0.0038214 68.9095 0.223749 70.9906 0.678877C72.9617 1.08833 74.8425 1.86089 76.5401 2.9584C78.1692 4.03697 79.5139 5.50435 80.4568 7.23251C81.4937 9.27574 81.9963 11.5556 81.9164 13.8532C82.0108 16.6777 81.1363 19.4477 79.4426 21.689C77.664 23.8819 75.2621 25.4625 72.5656 26.2146L84.3489 45.8335H71.6008ZM71.1555 14.0459C71.1945 13.1224 70.9589 12.2083 70.4794 11.4228C70.0439 10.7655 69.4508 10.2319 68.756 9.8724C68.0108 9.49088 67.2082 9.23878 66.3812 9.12652C65.5456 9.00233 64.7024 8.93792 63.8579 8.93377H58.0281V19.6107H63.2148C64.1374 19.6128 65.0586 19.5371 65.9689 19.3844C66.858 19.2391 67.72 18.9565 68.5251 18.5463C69.2891 18.1669 69.9406 17.5885 70.4134 16.8702C70.9347 16.0261 71.1933 15.0418 71.1555 14.0459V14.0459Z" fill="black"/>
<path d="M124.852 32.5C124.926 34.699 124.42 36.878 123.385 38.8106C122.442 40.4828 121.108 41.8932 119.501 42.9171C117.809 43.9882 115.944 44.7458 113.993 45.1547C111.909 45.6098 109.783 45.8373 107.652 45.8335H89.6921V0H107.652C109.448 0.00685741 111.241 0.189276 113.003 0.544739C114.743 0.88938 116.414 1.52367 117.951 2.42199C119.429 3.30347 120.674 4.5374 121.579 6.01727C122.572 7.76648 123.058 9.7653 122.981 11.7831C123.065 14.0663 122.342 16.3047 120.944 18.0937C119.533 19.7854 117.677 21.0327 115.592 21.689V21.8147C116.844 22.023 118.057 22.4273 119.188 23.0131C121.435 24.1349 123.196 26.0595 124.135 28.4186C124.634 29.7183 124.878 31.1049 124.852 32.5ZM112.484 13.2665C112.528 12.592 112.388 11.9182 112.08 11.3192C111.771 10.7203 111.306 10.2196 110.736 9.87235C109.126 9.06958 107.338 8.70844 105.549 8.82477H100.197V18.2529H106.06C107.734 18.3548 109.397 17.9147 110.81 16.9959C111.37 16.5629 111.817 15.9959 112.111 15.3454C112.404 14.6949 112.535 13.9808 112.492 13.2665H112.484ZM113.96 31.4524C114.03 30.6572 113.869 29.8584 113.494 29.1562C113.12 28.454 112.551 27.8797 111.857 27.5051C110.099 26.6961 108.178 26.32 106.25 26.4073H100.197V36.8998H106.316C107.203 36.8966 108.088 36.8209 108.963 36.6735C109.826 36.5301 110.661 36.2472 111.436 35.8354C112.228 35.4296 112.885 34.796 113.324 34.0137C113.764 33.2313 113.968 32.3348 113.91 31.4356L113.96 31.4524Z" fill="black"/>
<path d="M162.627 45.8335L159.147 36.8327H141.666L138.367 45.8335H126.51L145.426 0H155.997L174.723 45.8335H162.627ZM150.522 12.2357L144.791 27.9661H156.129L150.522 12.2357Z" fill="black"/>
<path d="M207.146 45.8335L189.005 15.8561H188.832L189.088 45.8335H178.483V0H190.91L208.993 29.9104H209.191L208.935 0H219.507V45.8335H207.146Z" fill="black"/>
<path d="M40.8995 101.767L41.1551 69.3339H40.9572L29.2398 101.767H21.5959L10.2166 69.3339H10.027L10.2826 101.767H0V55.9333H15.5022L25.7683 85.3241H26.024L35.8448 55.9333H51.5944V101.767H40.8995Z" fill="black"/>
<path d="M107.839 78.653C107.884 82.0584 107.256 85.4382 105.992 88.5924C104.828 91.4922 103.084 94.1148 100.872 96.2942C98.626 98.4663 95.9692 100.151 93.0627 101.247C89.9275 102.436 86.6043 103.029 83.2583 102.999C79.9202 103.032 76.6047 102.438 73.4788 101.247C70.5851 100.145 67.9403 98.4604 65.7029 96.2942C63.49 94.1148 61.7463 91.4922 60.5822 88.5924C59.3186 85.4382 58.6906 82.0584 58.7351 78.653C58.6836 75.2471 59.3119 71.8659 60.5822 68.7137C61.7453 65.8598 63.4906 63.2891 65.7029 61.1711C67.9544 59.0622 70.5982 57.4323 73.4788 56.3774C79.8197 54.1312 86.7218 54.1312 93.0627 56.3774C95.9552 57.4237 98.6109 59.0511 100.872 61.1627C103.084 63.2807 104.829 65.8515 105.992 68.7053C107.264 71.8601 107.892 75.2443 107.839 78.653V78.653ZM96.1879 78.653C96.2015 76.7547 95.8774 74.8695 95.2313 73.0883C94.6485 71.446 93.7486 69.9387 92.5844 68.655C91.4515 67.4119 90.079 66.4191 88.5522 65.7385C86.8938 65.0143 85.1044 64.6517 83.2996 64.6742C81.562 64.6432 79.8371 64.9813 78.2355 65.6668C76.6338 66.3522 75.1906 67.37 73.9982 68.655C72.8224 69.9297 71.9209 71.4396 71.3513 73.0883C70.7186 74.8726 70.4003 76.7564 70.4113 78.653C70.3929 80.6064 70.7168 82.5474 71.3678 84.3854C71.954 86.046 72.8531 87.5747 74.0147 88.8858C75.1465 90.1401 76.5224 91.1418 78.0552 91.8273C79.7087 92.5352 81.4848 92.8998 83.279 92.8998C85.0732 92.8998 86.8492 92.5352 88.5027 91.8273C90.0433 91.1387 91.4294 90.1377 92.5762 88.8858C93.7566 87.5829 94.6679 86.0526 95.2561 84.3854C95.8987 82.5459 96.2142 80.6049 96.1879 78.653V78.653Z" fill="black"/>
<path d="M143.709 101.767L125.568 71.7894H125.378L125.658 101.767H115.046V55.9333H127.464L145.556 85.8437H145.745L145.49 55.9333H156.061V101.767H143.709Z" fill="black"/>
<path d="M192.879 101.767L176.131 80.6813H175.999V101.767H165.362V55.9333H175.999V74.5802H176.189L192.31 55.9333H205.94L186.513 77.0357L207.128 101.767H192.879Z" fill="black"/>
<path d="M210.657 101.767V55.9333H240.977V65.2526H221.187V73.9265H239.913V82.8016H221.162V92.3135H242.123V101.767H210.657Z" fill="black"/>
<path d="M271.231 82.3574V101.767H260.338V82.3574L243.393 55.9333H256.586L266.209 72.8957L275.816 55.9333H288.556L271.231 82.3574Z" fill="black"/>
<path d="M288.556 78.8457C288.535 75.6291 289.175 72.4435 290.436 69.4929C292.873 63.7387 297.388 59.1528 303.052 56.679C305.961 55.4181 309.091 54.768 312.254 54.768C315.417 54.768 318.547 55.4181 321.457 56.679C327.12 59.1528 331.635 63.7387 334.073 69.4929C335.325 72.4454 335.957 75.6309 335.928 78.8457C335.96 82.0689 335.328 85.2632 334.073 88.2236C331.635 93.9779 327.12 98.5637 321.457 101.038C318.547 102.298 315.417 102.948 312.254 102.948C309.091 102.948 305.961 102.298 303.052 101.038C297.388 98.5637 292.873 93.9779 290.436 88.2236C289.172 85.2651 288.532 82.0707 288.556 78.8457V78.8457ZM295.053 78.8457C295.039 81.275 295.493 83.6837 296.389 85.9357C297.242 88.0943 298.499 90.064 300.092 91.7351C301.662 93.3735 303.519 94.7007 305.567 95.6488C307.669 96.61 309.949 97.107 312.254 97.107C314.56 97.107 316.839 96.61 318.942 95.6488C320.977 94.6956 322.822 93.3688 324.384 91.7351C325.976 90.064 327.233 88.0943 328.086 85.9357C329.867 81.3823 329.867 76.309 328.086 71.7557C327.231 69.6006 325.974 67.6341 324.384 65.9647C322.814 64.325 320.958 62.9977 318.909 62.051C316.806 61.0898 314.527 60.5927 312.221 60.5927C309.916 60.5927 307.636 61.0898 305.534 62.051C303.484 62.9955 301.626 64.3231 300.059 65.9647C298.468 67.6341 297.211 69.6006 296.356 71.7557C295.472 74.0105 295.03 76.4187 295.053 78.8457V78.8457ZM303.142 65.9647H311.933C312.617 65.9647 313.582 66.0066 314.736 66.0988C315.948 66.1884 317.134 66.4949 318.241 67.0039C319.42 67.5483 320.448 68.3803 321.234 69.4259C322.164 70.8012 322.614 72.4535 322.512 74.119C322.545 75.2123 322.371 76.3018 322.001 77.3288C321.706 78.0997 321.263 78.8033 320.698 79.3988C320.171 79.9326 319.542 80.3517 318.851 80.6308C318.164 80.9027 317.447 81.0884 316.715 81.1839L323.081 91.2406H316.394L310.729 81.5191H309.64V91.2155H303.142V65.9647ZM309.541 76.4907H312.155C312.543 76.4907 312.98 76.4907 313.4 76.4237C313.83 76.3855 314.251 76.2751 314.645 76.0969C315.033 75.9147 315.362 75.624 315.594 75.2588C315.874 74.803 316.009 74.2704 315.981 73.7335C316.01 73.1992 315.875 72.669 315.594 72.2166C315.361 71.8524 315.033 71.5619 314.645 71.3786C314.248 71.2081 313.829 71.0979 313.4 71.0517C312.955 71.0098 312.576 70.9931 312.155 70.9931H309.541V76.4907Z" fill="black"/>
</svg>
