<?xml version="1.0" standalone="no"?>
<!DOCTYPE svg PUBLIC "-//W3C//DTD SVG 20010904//EN"
 "http://www.w3.org/TR/2001/REC-SVG-20010904/DTD/svg10.dtd">
<svg version="1.0" xmlns="http://www.w3.org/2000/svg"
 width="225.000000pt" height="225.000000pt" viewBox="0 0 225.000000 225.000000"
 preserveAspectRatio="xMidYMid meet">

<g transform="translate(0.000000,225.000000) scale(0.100000,-0.100000)"
fill="#000000" stroke="none">
<path d="M986 1804 c-211 -51 -398 -222 -465 -428 -114 -343 52 -696 390 -833
50 -20 63 -22 70 -11 13 20 11 28 -8 28 -9 0 -55 19 -102 41 -115 55 -229 168
-284 280 -169 344 0 751 363 873 42 14 106 28 143 32 46 5 67 11 67 20 0 19
-94 17 -174 -2z"/>
<path d="M1070 1741 c-218 -30 -403 -182 -477 -391 -22 -63 -26 -93 -26 -185
-1 -94 3 -121 26 -188 34 -97 71 -159 92 -151 19 8 20 3 -19 76 -64 117 -83
267 -51 392 51 194 214 355 406 401 168 39 358 -6 481 -115 40 -34 47 -38 53
-22 14 37 -138 138 -251 166 -79 19 -167 26 -234 17z"/>
<path d="M612 1674 c-81 -83 -164 -238 -187 -349 -21 -101 -19 -256 4 -347 87
-341 410 -576 761 -555 52 3 126 16 165 28 82 25 77 22 70 41 -5 14 -14 13
-68 -5 -51 -18 -87 -21 -207 -21 -132 -1 -152 2 -222 26 -178 63 -327 191
-406 349 -59 118 -76 192 -76 324 0 186 60 336 191 475 62 67 71 79 58 90 -13
11 -26 1 -83 -56z"/>
<path d="M1033 1656 c-226 -52 -393 -263 -393 -496 0 -191 111 -370 281 -454
312 -153 681 43 731 389 33 232 -112 467 -338 545 -77 27 -201 34 -281 16z
m187 -37 c0 -12 -9 -34 -20 -49 -19 -27 -19 -28 -1 -23 10 3 22 0 25 -6 5 -8
-17 -11 -68 -11 -44 0 -76 4 -76 10 0 6 6 9 13 8 8 -2 13 12 15 40 2 25 -1 42
-7 42 -6 0 -11 5 -11 10 0 6 7 10 15 10 11 0 15 -12 15 -49 0 -71 32 -76 73
-11 21 32 8 55 -24 46 -23 -7 -23 -6 -5 8 24 19 56 5 56 -25z m-295 -71 l16
-33 -20 25 c-20 24 -26 40 -16 40 2 0 12 -15 20 -32z m457 3 c-9 -16 -18 -28
-20 -27 -5 6 21 56 29 56 5 0 0 -13 -9 -29z m-91 -73 c79 -36 131 -87 170
-166 31 -60 34 -75 34 -152 0 -71 -5 -95 -27 -142 -34 -72 -98 -137 -174 -174
-51 -25 -70 -29 -144 -29 -71 0 -94 4 -142 27 -129 60 -199 163 -206 302 -5
102 19 173 84 245 81 90 156 122 274 118 56 -2 89 -9 131 -29z m-536 -90 c14
-6 25 -15 25 -20 0 -7 -31 8 -59 29 -10 7 10 2 34 -9z m815 7 c0 -2 -15 -12
-32 -20 l-33 -16 24 21 c22 19 41 26 41 15z m-849 -185 c14 -8 19 -21 19 -53
0 -24 -5 -48 -12 -55 -15 -15 -45 -16 -54 -1 -4 7 0 9 14 5 15 -5 24 -1 31 13
15 27 15 27 -16 26 -22 0 -29 5 -31 23 -2 13 2 30 8 38 15 17 16 17 41 4z
m895 -4 c16 -13 17 -18 6 -35 -8 -14 -8 -21 -1 -21 5 0 9 -12 7 -27 -2 -23 -8
-28 -32 -28 -17 0 -31 6 -34 15 -5 13 -3 13 11 1 14 -11 20 -11 33 0 15 12 14
15 -5 30 -17 14 -18 18 -6 23 8 3 15 13 15 22 0 12 -7 15 -25 12 -26 -5 -35 6
-12 15 19 8 22 8 43 -7z m-836 -264 c0 -8 -43 -32 -58 -32 -6 0 49 40 56 40 1
0 2 -4 2 -8z m790 -27 c0 -10 -16 -4 -40 16 l-25 20 33 -16 c17 -8 32 -18 32
-20z m-645 -156 c-9 -17 -19 -29 -22 -26 -5 5 25 57 33 57 3 0 -3 -14 -11 -31z
m255 23 c0 -5 -10 -8 -22 -8 -14 1 -24 -6 -26 -16 -3 -13 3 -18 21 -18 34 0
42 -35 15 -62 -19 -19 -21 -19 -39 -2 -21 19 -25 64 -9 95 10 19 60 28 60 11z
m211 -34 c5 -10 6 -18 1 -18 -5 0 -14 11 -20 25 -22 49 -11 44 19 -7z"/>
<path d="M1365 1278 c-181 -105 -214 -119 -238 -104 -36 22 -217 117 -217 114
0 -2 47 -35 105 -73 57 -39 103 -75 101 -81 -3 -8 8 -12 30 -11 19 1 34 6 34
11 0 6 59 49 130 95 72 46 130 85 130 87 0 6 0 6 -75 -38z"/>
<path d="M684 1185 c-7 -18 3 -35 21 -35 18 0 26 15 19 34 -8 20 -33 21 -40 1z"/>
<path d="M1130 705 c0 -20 4 -26 18 -23 9 2 17 12 17 23 0 11 -8 21 -17 23
-14 3 -18 -3 -18 -23z"/>
<path d="M348 1347 c-8 -26 -13 -98 -13 -192 1 -143 2 -155 33 -245 76 -220
217 -383 417 -479 158 -77 302 -103 461 -81 188 24 338 97 469 225 99 96 123
131 106 148 -10 9 -18 4 -39 -23 -14 -19 -54 -63 -88 -96 -229 -225 -577 -287
-870 -154 -198 89 -369 286 -428 491 -34 116 -38 275 -11 405 5 23 3 33 -9 37
-12 5 -19 -4 -28 -36z"/>
</g>
</svg>
